<?xml version="1.0" encoding="UTF-8" standalone="no"?>
<!DOCTYPE svg PUBLIC "-//W3C//DTD SVG 1.1//EN" "http://www.w3.org/Graphics/SVG/1.1/DTD/svg11.dtd">
<svg width="100%" height="100%" viewBox="0 0 144 46" version="1.1" xmlns="http://www.w3.org/2000/svg" xmlns:xlink="http://www.w3.org/1999/xlink" xml:space="preserve" xmlns:serif="http://www.serif.com/" style="fill-rule:evenodd;clip-rule:evenodd;stroke-linejoin:round;stroke-miterlimit:2;">
    <g>
        <g>
            <clipPath id="_clip1">
                <path d="M27.1,41.5C28.3,41.1 29.6,41.5 31,41.5C32,41.4 33.1,41.5 34.1,41.7C33.5,42 32.9,42.1 32.2,41.9C32.1,41.9 32,42 31.8,42C29.8,41.9 28.1,41.9 27.2,41.9L27.1,41.8L27.1,41.5"/>
            </clipPath>
            <g clip-path="url(#_clip1)">
                <rect x="22.1" y="36.3" width="17" height="10.8" style="fill:rgb(0,126,138);"/>
            </g>
        </g>
    </g>
    <g>
        <g>
            <clipPath id="_clip2">
                <path d="M142.3,0.8L142.5,0.8C142.4,0.6 142.4,0.7 142.3,0.8ZM142,1C142.1,1 142.2,0.9 142.3,0.7L142,0.9L142,1ZM143.5,44.6C144,44.1 143.7,43.1 143.7,42.2L143.7,36.1C143.4,35.8 143.1,35.5 142.7,35.2L143,34.6C143.2,34.7 143.4,34.6 143.6,34.5C143.7,27.4 143.8,18.1 143.7,10.7C143.7,9.3 143.6,7.8 143.6,6C143.6,4.8 144,1.3 143,1.2L142.4,1.5C142.2,1.5 142,1.4 141.8,1.4C141.5,1.5 141.5,1.8 141.3,1.8C140.8,1.4 139.4,1.7 138.7,1.5C140.2,1.1 140.9,1 141.9,0.8C141.9,0.6 142,0.4 141.8,0.4C139.7,0.4 106.2,0.3 76.7,0.3C74.2,0.3 70.3,0.8 67.8,0.8C50.3,0.8 35.7,0.3 34.4,0.3C33.3,0.3 32.2,0.4 31.1,0.3C30.7,0.3 30.2,0.1 29.8,0.1C29.4,0.1 29.1,0.2 28.7,0.3L27,0.3C26.2,0.4 25.5,0.4 24.7,0.3C18.3,0.2 11.5,0.5 4,0.4C3.8,0.3 3.5,0.2 3.3,0.3C3.2,0.1 3,0 2.9,0L2,0.4C2.1,0.6 2.1,0.8 2,1C1.6,1 1.2,0.9 0.8,0.9C0.6,0.8 0.6,0.4 0.3,0.5C0,0.6 0.1,2 0.2,2.3C0.3,5.5 0.2,8.9 0.2,12.5L0.2,20.3C0,21.1 0,22 0.1,22.9C0.2,23.1 0.3,23.3 0.5,23.5C0.6,23.8 0.6,24.1 0.6,24.4C0.7,25.2 0.6,26.1 0.6,26.7C0,27.7 0.2,29.8 0.2,31.5L0.2,38.7C0.1,40.1 0.2,41.6 0.3,43C0.1,43.2 0.1,43.4 0.3,43.6C0.1,43.7 -0,43.9 -0,44.1C0.6,44.2 0.2,44.6 0.4,45C1.4,45.2 2.3,45.2 3.3,45.2L21.8,45.2C22.8,45.3 23.9,45.3 24.9,45.2C25.1,45.1 25.2,45 25.4,44.8L27.1,44.8C27.2,45 27.3,45.1 27.5,45.2C31.6,45.3 133.3,45.8 137.6,45.8C138.3,45.9 138.9,46 139.6,46C139.8,45.9 140,45.6 140.3,45.6L141.3,45.6C142.2,45.7 143.2,45.6 144,45.1C143.9,44.9 143.8,44.7 143.5,44.6ZM141.6,7.4L141.7,7.4C141.7,7.5 141.7,7.6 141.6,7.6C141.5,7.8 141.6,7.4 141.6,7.4ZM1.8,3.8C1.8,3.6 1.8,3.3 1.9,3.1L2.1,3.1C2.1,3.3 2.2,3.6 2.3,3.8L1.8,3.8ZM2,9.6C2.2,10.9 2.2,12.2 2.1,13.5C1.9,12.2 1.9,10.9 2,9.6ZM2.1,42.8C2.3,42.9 2.8,42.5 2.8,43C2.5,42.8 2.1,43 2.1,42.8ZM33.8,43.6C33.7,43.6 34.1,43.5 34.1,43.6C34.1,43.7 34,43.5 33.8,43.6ZM34.3,43.6C34.4,43.5 34.9,43.3 34.8,43.6L34.3,43.6ZM142,40.5C141.6,40.1 141.9,39.1 141.2,39.2C140.7,39.2 141,39.8 140.8,40.3C140.8,40.5 140.4,40.4 140.3,40.5C140,41.6 140,42.5 139.7,43.6C138.8,43.7 88.7,44.1 85.4,43.7C83.9,43.5 82.4,43.5 81,43.7C58.2,43.7 37.1,43.6 35.7,43.6C37.1,43.2 38.9,43.8 40.3,43.3C39.9,43 39.4,42.9 39,43C38,42.9 37,42.9 36,43C35.7,42.8 35.4,42.8 35.2,43C34.9,42.9 34.6,42.9 34.3,42.9C34.1,42.8 34,42.7 33.9,42.6C31.4,43 28.8,43.1 26.2,43C26.3,41.8 26.4,40.7 26.5,39.3L26.5,38.4C26.4,37.2 26.4,35.9 26.5,34.7C26.4,30.6 25.5,26.6 23.7,22.9C23.4,21.9 22.9,21 22.4,20.2C22,19.9 21.7,19.5 21.5,19.1C21.7,19.1 22,19.2 22.2,19.3C21.8,18.1 20.7,17.4 19.6,16.8C18.6,16 17.5,15.4 16.3,14.9C15.7,14.9 15.1,14.7 14.6,14.4C14.1,14.3 13.6,14.2 13.1,13.9C13.4,13.8 13.7,13.8 14,13.7C13,13.2 12,12.7 11.1,12.2C9.8,11 8.8,9.6 8.1,7.9C7.9,7.6 7.8,6.9 7.3,6.9C7,7.7 8.2,8.9 7.2,9.2C7.2,8.9 7.1,8.5 7,8.2L7,10.7C6.9,13.9 7.8,17.4 7.7,20.1C8.6,22 9.6,23.8 10.7,25.6C10.6,25.8 10.1,25.6 10.3,25.8C10.8,27 11.5,28.1 12.4,29C13.1,29.6 13.8,30.3 14.4,30.7C15.5,31.5 16.7,31.8 17.5,32.7C20.5,33.8 23.8,34.5 25.4,37.3C25.4,39.2 25.2,41.1 25,43L24,43C23.7,43 23.3,42.8 23,42.8C22.7,42.8 22.6,42.9 22.4,42.9C22.2,42.9 21.8,42.7 21.5,42.7C20.8,42.7 20.2,42.7 19.5,42.8L8.5,42.8C8.3,42.8 8,42.9 7.7,42.9C7.3,42.8 6.9,42.7 6.5,42.7C6.3,42.7 6.2,42.8 6.1,42.8C5.4,42.8 4.7,42.7 4,42.6C4.3,42.3 5.3,42.6 5.1,41.7C4.8,41.4 4.4,41.2 4.1,41C4.2,40.6 4.2,40.2 3.8,40.1C3.9,39.8 3.8,39.5 3.5,39.3L3.3,39.3C3,39.2 3.1,39.5 2.9,39.5C2.9,39.2 2.7,39 2.5,39C2.8,36.7 2.8,34.4 2.6,32.1C2.5,31.2 2.8,30.4 2.3,29.7C2.4,26.3 2.1,23 2.3,19.5C2.4,19.4 2.6,19.3 2.7,19.2C2.8,18.2 2.8,17.1 2.8,16.1C2.6,14.8 2.9,12.8 2.8,11.2C2.7,9.6 2.6,8.4 2.6,7.2C2.6,6.7 2.6,6.1 2.8,5.6C2.6,5.3 2.4,5.3 2.1,5.4C2.1,5 2.2,4.6 2.3,4.2C2.5,4.4 2.6,4.7 2.8,5L3.4,5C3.4,4.4 3.4,3.8 3.5,3.2L8.8,3.2C9.8,3.4 10.9,3.4 11.9,3.2C12.8,3.1 14,3.5 14.6,3C14.2,2.5 13.4,2.6 12.6,2.6C12.2,2.6 11.8,2.4 11.4,2.4L9.4,2.4C9.7,2.2 10.1,2.1 10.4,2.2L14.6,2.2L14.9,2.5C17.3,2.5 19.7,2.6 22.5,2.7C24.3,2.8 26,2.7 27.8,2.7C33,2.5 135,3.2 140.4,2.3C140.5,2 140.1,2.2 140.2,2L140.7,2C140.9,4.3 140.5,6.3 140.6,8.1C140.4,8.6 140.4,9.1 140.5,9.7C140.3,10.6 140.3,11.4 140.4,12.3C140.9,12.8 140.5,13.7 140.6,14.7C140.6,14.9 140.7,15.2 140.7,15.5C140.7,16.1 140.6,16.7 140.6,17.3C140.6,17.9 140.5,18.7 141,18.7C141.2,18.7 141.3,18.6 141.4,18.4C141.3,17.3 141.5,16.2 141.4,15.4C141.7,13.4 141.5,10.1 141.8,8C141.9,9.1 141.9,10.3 141.8,11.5C141.8,11.6 141.7,11.8 141.7,11.9C141.8,12.1 141.8,12.4 141.8,12.6C141.6,12.8 141.6,13.2 141.7,13.4C141.6,13.5 141.6,13.6 141.6,13.7C141.7,14.1 141.7,14.5 141.5,14.9C141.4,15.9 141.4,17.5 141.4,18.5C141.3,18.9 141.3,19.3 141.6,19.6C141.6,21.3 141.4,22.9 141.4,24.7C141.4,24.9 141.5,25.2 141.5,25.3L141.4,25.6C141.4,25.7 141.5,25.9 141.5,26C141.5,26.2 141.5,26.4 141.4,26.6L141.7,27.2C141.6,27.6 141.6,28 141.7,28.5C141.6,29.4 141.6,30.2 141.7,31.1C141.7,31.2 141.6,31.3 141.6,31.4C141.7,33.3 141.2,35.3 141.4,37.4C142,36.8 141.7,35.4 142,34.6C142.1,35.7 141.8,36.9 141.9,38.1C142.2,38.8 142.2,39.7 142,40.5ZM20.7,28.4C20.4,27.5 19.8,26.7 19.2,26C18.1,24.7 13.7,22.1 13.7,21.9C13.2,21.6 12.9,21.1 12.7,20.6L12.6,20.6C12.6,20.3 12.4,20 12.1,20C11.6,18.9 10.9,18 10.4,16.8C11.6,18.6 13.2,20 14.3,22C15.5,22.3 16.6,22.9 17.5,23.8C18.3,23.8 20.4,27.4 21,28.4L20.8,28.5C20.8,28.6 21,28.6 20.9,28.7C20.9,28.6 21,28.6 21.1,28.6C20.9,28.9 21.6,29.3 21.5,29.7C21.7,29.7 21.8,29.9 21.8,30L21.6,29.9C21.7,30.1 22,30 22,30.3C21.6,30.3 21.7,29.8 21.5,29.6C21.1,29.2 20.9,28.6 20.7,28.1C20.6,28.1 20.8,28.2 20.7,28.4ZM17.9,25.9C17.3,25.6 16.8,25.2 16.4,24.7C17,25 17.5,25.4 17.9,25.9ZM142.8,15.1L142.9,15.2L142.9,16.9C142.9,17.4 143.1,18.2 142.5,18.2C142.5,17.4 142.7,16.1 142.8,15.1Z"/>
            </clipPath>
            <g clip-path="url(#_clip2)">
                <rect x="0" y="0" width="143.5" height="46" style="fill:rgb(0,126,138);"/>
            </g>
        </g>
    </g>
    <g>
        <g transform="matrix(0.764758,0.0851988,-0.0851988,0.764758,9.20604,11.5278)">
            <clipPath id="_clip3">
                <path d="M35.7,12.4C35.2,11.6 34.7,10.8 34,10.1C34,9.7 33.9,8.8 33.5,8.7C33.6,13.7 30.3,15.8 27.9,18.6C27.9,19.5 27.2,20.1 27,21C26.8,21.5 27,22.2 26.5,22.3C26.5,23.9 26.4,25.5 26.1,27.1C26.5,28.7 26.7,30.3 26.9,32C27.1,32.2 27.3,32.4 27.4,32.6C28.4,31.3 29,29.6 30,28.3C31.1,27.1 32.3,25.9 33.6,24.9C34,23.9 34.6,23 35.4,22.3C35.9,20.6 36.8,19.2 37.1,17.3C36.3,15.8 36.4,13.8 35.7,12.4M29.5,24.8C29.6,22.6 32.4,19.3 32.9,18.8C31.7,20.7 30.5,22.7 29.5,24.8M33.9,16.9L33.3,18.1C33.3,18.1 33.5,17.4 33.8,16.8C33.9,16.6 33.9,16.3 33.9,16.1C34,16.4 34,16.6 33.9,16.9"/>
            </clipPath>
            <g clip-path="url(#_clip3)">
                <rect x="21.1" y="3.8" width="20.9" height="33.8" style="fill:rgb(0,126,138);"/>
            </g>
        </g>
        <g transform="matrix(0.321283,0,0,0.321283,23.2366,2.48057)">
            <path d="M311.333,63.305C308.333,62.72 304,58.498 304,56.159C304,55.093 304.845,53.178 305.878,51.902C307.331,50.108 307.511,49.189 306.673,47.847C305.836,46.508 305.995,45.663 307.367,44.147C309.045,42.293 309.051,41.998 307.463,38.929C306.075,36.244 305.976,35.024 306.897,31.948C308.475,26.682 312.471,25 323.401,25C331.462,25 332,25.131 332,27.094C332,28.307 331.204,29.395 330.107,29.682C328.553,30.089 328.304,30.845 328.714,33.908C329.112,36.871 328.713,38.222 326.777,40.473C324.765,42.812 323.341,43.39 318.629,43.781C311.014,44.412 311.806,46.321 320.011,47.114C326.85,47.776 330.015,50.075 329.985,54.361C329.936,61.561 321.973,65.379 311.333,63.305ZM322.446,56.954C324.246,55.154 321.559,52.522 317.579,52.185C311.656,51.685 308.45,55.997 313.25,58.007C315.785,59.068 320.92,58.48 322.446,56.954ZM17.914,52.1C10.069,49.554 5.8,43.175 5.8,34C5.8,26.78 8.629,21.013 13.719,17.857C18.76,14.73 27.927,14.589 32.997,17.559C44.619,24.37 44.823,43.527 33.343,50.232C29.711,52.353 21.686,53.325 17.914,52.1ZM126.5,51.805C123.32,50.002 123.032,49.004 123.015,39.75C123.003,32.646 122.718,31 121.5,31C120.567,31 120,30.056 120,28.5C120,26.944 120.567,26 121.5,26C122.498,26 123,25.002 123,23.019C123,20.674 123.533,19.904 125.498,19.411C129.288,18.46 131,19.567 131,22.969C131,25.67 131.326,26 134,26C136.533,26 137,26.389 137,28.5C137,30.611 136.533,31 134,31L131,31L131,47L133.893,47C135.654,47 137.033,47.643 137.417,48.643C138.131,50.505 138.234,50.348 135.316,51.865C132.565,53.294 129.085,53.271 126.5,51.805ZM144.455,50.545C141.312,47.403 141.215,42.81 144.231,40C145.457,38.857 148.832,37.233 151.731,36.39C154.629,35.547 157,34.53 157,34.129C157,30.769 149.14,29.75 148.29,33C148,34.107 146.926,35 145.883,35C144.357,35 144,34.252 144,31.047C144,27.331 144.225,27.032 147.75,26.053C152.544,24.721 154.937,24.733 158.881,26.108C163.293,27.647 165,31.507 165,39.95C165,45.55 165.309,47 166.5,47C167.433,47 168,47.944 168,49.5C168,51.828 167.661,52 163.083,52C160.176,52 158.005,51.515 157.771,50.812C157.49,49.97 156.674,50.115 154.965,51.312C151.506,53.734 147.34,53.431 144.455,50.545ZM46,49.5C46,47.667 46.533,47 48,47C49.835,47 50,46.333 50,38.906C50,31.654 49.792,30.758 48,30.29C45.284,29.579 45.455,26.379 48.25,25.63C52.693,24.44 58,24.913 58,26.5C58,28.341 58.779,28.341 62,26.5C65.553,24.469 69.022,24.672 71.563,27.06L73.756,29.119L77.128,27.063C81.318,24.509 85.085,24.438 88.075,26.859C90.091,28.492 90.423,29.821 90.804,37.774C91.177,45.591 91.494,46.896 93.118,47.321C94.205,47.605 95,48.698 95,49.906C95,51.799 94.423,52 89,52L83,52L83,42.622C83,31.934 81.945,29.932 77.19,31.599C74.647,32.49 74.484,32.936 74.206,39.771C73.933,46.481 74.059,47 75.956,47C77.47,47 78,47.649 78,49.5C78,51.889 77.733,52 72,52L66,52L66,41.969C66,31.105 65.505,30.155 60.498,31.411C58.113,32.01 58,32.375 58,39.519C58,46.333 58.178,47 60,47C61.467,47 62,47.667 62,49.5C62,51.958 61.867,52 54,52C46.133,52 46,51.958 46,49.5ZM100.25,51.294C98.447,50.947 98,50.191 98,47.489C98,43.209 99.783,42.06 101.955,44.94C103.155,46.531 104.452,47.073 106.491,46.834C111.087,46.296 110.503,44.383 104.587,40.599C98.31,36.583 96.83,33.435 99.386,29.534C101.378,26.494 107.621,24.519 112.404,25.416C115.694,26.033 116,26.38 116,29.486C116,33.807 114.22,34.943 112.02,32.027C110.769,30.368 109.74,29.948 108.157,30.45C104.874,31.492 105.501,32.619 111.5,36.457C116.213,39.472 117,40.415 117,43.053C117,44.746 116.559,46.955 116.021,47.961C114.291,51.194 107.348,52.661 100.25,51.294ZM172,49.5C172,47.667 172.533,47 174,47C175.908,47 176,46.333 176,32.5C176,18.667 175.908,18 174,18C172.533,18 172,17.333 172,15.5C172,13.111 172.267,13 178,13L184,13L184,30C184,46.333 184.078,47 186,47C187.467,47 188,47.667 188,49.5C188,51.958 187.867,52 180,52C172.133,52 172,51.958 172,49.5ZM192,49.5C192,47.667 192.533,47 194,47C195.908,47 196,46.333 196,32.5C196,18.667 195.908,18 194,18C192.533,18 192,17.333 192,15.5C192,13.111 192.267,13 198,13L204,13L204,30C204,46.333 204.078,47 206,47C207.467,47 208,47.667 208,49.5C208,51.958 207.867,52 200,52C192.133,52 192,51.958 192,49.5ZM212,49.5C212,47.667 212.533,47 214,47C215.835,47 216,46.333 216,38.906C216,31.654 215.792,30.758 214,30.29C211.284,29.579 211.455,26.379 214.25,25.63C218.693,24.44 224,24.913 224,26.5C224,28.341 224.779,28.341 228,26.5C231.813,24.32 235.769,24.678 238.545,27.455C240.769,29.678 241,30.715 241,38.455C241,46.333 241.156,47 243,47C244.467,47 245,47.667 245,49.5C245,51.889 244.733,52 239,52L233,52L233,43.082C233,32.796 232.528,31 229.827,31C225.072,31 224,32.662 224,40.035C224,46.333 224.191,47 226,47C227.467,47 228,47.667 228,49.5C228,51.958 227.867,52 220,52C212.133,52 212,51.958 212,49.5ZM249,49.5C249,47.667 249.533,47 251,47C252.835,47 253,46.333 253,38.906C253,31.654 252.792,30.758 251,30.29C249.9,30.002 249,28.972 249,28C249,26.009 251.694,25.034 257.25,25.014L261,25L261,36C261,46.333 261.121,47 263,47C264.467,47 265,47.667 265,49.5C265,51.958 264.867,52 257,52C249.133,52 249,51.958 249,49.5ZM268,49.5C268,47.667 268.533,47 270,47C271.843,47 272,46.333 272,38.5C272,30.667 271.843,30 270,30C266.558,30 267.496,26.351 271.125,25.625C276.571,24.536 280,24.874 280,26.5C280,28.388 281.025,28.389 284.636,26.506C286.211,25.685 288.542,25.01 289.816,25.006C295.688,24.991 298,29.236 298,40.033C298,45.926 298.25,46.832 300,47.29C301.197,47.603 302,48.654 302,49.906C302,51.799 301.423,52 296,52L290,52L290,43.434C290,33.863 289,31 285.656,31C281.068,31 279.866,32.987 280.196,40.026C280.47,45.87 280.719,46.531 282.75,46.82C284.379,47.051 285,47.81 285,49.57C285,51.953 284.835,52 276.5,52C268.1,52 268,51.971 268,49.5ZM155.8,45.8C156.862,44.738 157.555,40 156.649,40C156.456,40 154.881,40.494 153.149,41.098C150.2,42.126 148.997,44.663 150.667,46.333C151.728,47.395 154.493,47.107 155.8,45.8ZM29.479,43.612C36.374,36.717 32.426,22 23.682,22C17.256,22 13.288,28.838 14.693,37.493C15.943,45.201 24.393,48.698 29.479,43.612ZM320.805,34.835C321.055,31.841 320.725,31.048 319.007,30.502C316.388,29.671 314,31.54 314,34.422C314,37.25 315.954,39.151 318.488,38.788C320.016,38.569 320.573,37.619 320.805,34.835ZM146.2,21.8C143.356,18.956 146.138,14.274 149.952,15.485C151.379,15.938 152,16.991 152,18.96C152,22.618 148.655,24.255 146.2,21.8ZM157,21C155.616,18.414 157.323,15 160,15C162.677,15 164.384,18.414 163,21C162.411,22.1 161.061,23 160,23C158.939,23 157.589,22.1 157,21ZM253.621,20.479C251.579,18.436 251.563,16.58 253.571,14.571C255.642,12.501 256.588,12.588 259.073,15.073C260.939,16.939 261.002,17.365 259.704,19.323C257.855,22.113 255.671,22.528 253.621,20.479Z" style="fill:rgb(0,126,138);"/>
        </g>
        <g transform="matrix(0.279625,0,0,0.279625,-56.0485,21.3649)">
            <path d="M397.736,51.75C395.179,49.808 394,45.486 394,38.052C394,32.074 393.753,31.169 392,30.71C390.803,30.397 390,29.346 390,28.094C390,26.201 390.577,26 396,26L402,26L402,34.566C402,43.951 403.006,47 406.101,47C410.847,47 412,45.327 412,38.44C412,32.438 411.812,31.879 409.5,31C407.969,30.418 407,29.264 407,28.025C407,26.199 407.64,26 413.5,26L420,26L420,37C420,47.333 420.121,48 422,48C424.835,48 424.629,51.598 421.75,52.37C417.307,53.56 412,53.087 412,51.5C412,49.637 410.259,49.637 407,51.5C403.882,53.282 399.895,53.39 397.736,51.75ZM538.077,51.238C529.215,46.338 528.697,32.204 537.19,27.026C545.481,21.971 556,27.461 556,36.843C556,40.454 554.74,41 546.418,41C539.602,41 538.317,42.174 541.571,45.429C543.537,47.395 546.274,47.427 549.948,45.527C552.699,44.104 552.819,44.144 553.457,46.683C554.363,50.294 552.412,51.936 546.44,52.59C542.71,52.998 540.661,52.666 538.077,51.238ZM619.303,51.803C618.094,51.219 616.635,49.392 616.06,47.742C614.345,42.821 616.45,39.912 623.792,37.06C630.862,34.314 631.904,31.733 626.166,31.181C623.506,30.925 622.742,31.272 622.308,32.931C622.002,34.099 620.947,35 619.883,35C618.356,35 618,34.252 618,31.039C618,27.23 618.162,27.033 622.214,25.942C627.593,24.494 632.646,25.319 635.643,28.135C637.734,30.099 638,31.242 638,38.268C638,45.346 638.212,46.243 640,46.71C641.294,47.049 642,48.074 642,49.617C642,51.805 641.597,52 637.083,52C634.312,52 632.002,51.506 631.789,50.868C631.528,50.085 630.438,50.239 628.256,51.368C624.671,53.222 622.461,53.329 619.303,51.803ZM351,49.617C351,48.074 351.706,47.049 353,46.71C354.862,46.223 355,45.346 355,34C355,22.654 354.862,21.777 353,21.29C351.706,20.951 351,19.926 351,18.383C351,16.071 351.238,16 359,16C366.762,16 367,16.071 367,18.383C367,19.926 366.294,20.951 365,21.29C363.301,21.734 363,22.654 363,27.406C363,30.483 363.337,33 363.75,33C364.163,32.999 366.393,30.801 368.706,28.115C372.434,23.787 372.845,22.82 372.325,19.616L371.738,16L379.369,16C386.842,16 387,16.052 387,18.5C387,20.203 386.449,21 385.271,21C384.321,21 381.236,23.579 378.416,26.732L373.29,32.463L377.895,39.244C381.174,44.071 383.292,46.201 385.25,46.637C387.306,47.095 388,47.849 388,49.625C388,51.85 387.637,52 382.235,52L376.47,52L372.485,45.536C370.293,41.98 368.241,39.055 367.924,39.036C367.608,39.016 366.313,40.102 365.048,41.449C362.434,44.232 362.893,47 365.969,47C367.469,47 368,47.654 368,49.5C368,51.971 367.9,52 359.5,52C351.211,52 351,51.941 351,49.617ZM427,49.5C427,47.667 427.533,47 429,47C430.835,47 431,46.333 431,38.906C431,31.654 430.792,30.758 429,30.29C426.284,29.579 426.455,26.379 429.25,25.63C433.693,24.44 439,24.913 439,26.5C439,28.341 439.779,28.341 443,26.5C446.521,24.487 450.666,24.666 452.929,26.929C454.833,28.833 454.904,28.833 458.64,26.929C463.412,24.496 466.15,24.491 469.139,26.911C471.249,28.619 471.537,29.788 471.849,37.911C472.163,46.052 472.397,47 474.099,47C475.46,47 476,47.71 476,49.5C476,51.889 475.733,52 470,52L464,52L464,42.622C464,31.934 462.945,29.932 458.19,31.599C455.647,32.49 455.484,32.936 455.206,39.771C454.933,46.481 455.059,47 456.956,47C458.47,47 459,47.649 459,49.5C459,51.889 458.733,52 453,52L447,52L447,41.969C447,31.002 446.257,29.65 441.436,31.847C439.191,32.87 439,33.508 439,39.979C439,46.333 439.19,47 441,47C442.467,47 443,47.667 443,49.5C443,51.958 442.867,52 435,52C427.133,52 427,51.958 427,49.5ZM479,49.5C479,47.667 479.533,47 481,47C482.835,47 483,46.333 483,38.906C483,31.654 482.792,30.758 481,30.29C477.781,29.448 478.529,26.344 482.125,25.625C487.73,24.504 491,24.866 491,26.607C491,27.754 491.5,28.001 492.75,27.469C499.088,24.773 501.941,24.58 504.75,26.657C507.493,28.685 507.592,28.688 511.003,26.859C515.917,24.223 519.441,24.473 521.927,27.635C523.649,29.824 524,31.686 524,38.635C524,46.333 524.159,47 526,47C527.467,47 528,47.667 528,49.5C528,51.889 527.733,52 522,52L516,52L516,41.969C516,31.105 515.505,30.155 510.498,31.411C508.117,32.009 508,32.383 508,39.402C508,45.926 508.228,46.826 510,47.29C511.197,47.603 512,48.654 512,49.906C512,51.799 511.423,52 506,52L500,52L500,42.622C500,31.934 498.945,29.932 494.19,31.599C491.647,32.49 491.484,32.936 491.206,39.771C490.933,46.481 491.059,47 492.956,47C494.47,47 495,47.649 495,49.5C495,51.958 494.867,52 487,52C479.133,52 479,51.958 479,49.5ZM560,49.5C560,47.667 560.533,47 562,47C563.908,47 564,46.333 564,32.5C564,18.667 563.908,18 562,18C560.533,18 560,17.333 560,15.5C560,13.111 560.267,13 566,13L572,13L572,30C572,46.333 572.078,47 574,47C575.467,47 576,47.667 576,49.5C576,51.958 575.867,52 568,52C560.133,52 560,51.958 560,49.5ZM579,49.5C579,47.667 579.533,47 581,47C582.843,47 583,46.333 583,38.5C583,30.667 582.843,30 581,30C577.558,30 578.496,26.351 582.125,25.625C587.571,24.536 591,24.874 591,26.5C591,28.388 592.025,28.389 595.636,26.506C597.211,25.685 599.542,25.01 600.816,25.006C606.688,24.991 609,29.236 609,40.033C609,45.926 609.25,46.832 611,47.29C612.197,47.603 613,48.654 613,49.906C613,51.799 612.423,52 607,52L601,52L601,43.434C601,33.863 600,31 596.656,31C592.068,31 590.866,32.987 591.196,40.026C591.47,45.87 591.719,46.531 593.75,46.82C595.379,47.051 596,47.81 596,49.57C596,51.953 595.835,52 587.5,52C579.1,52 579,51.971 579,49.5ZM648,51.158C645.963,50.548 645.5,49.773 645.5,46.969C645.5,42.968 648.373,41.494 649.295,45.021C649.743,46.732 650.484,47.077 653.166,46.819C658.447,46.311 657.976,43.656 652.031,40.421C646.525,37.423 645.05,34.611 646.626,30.11C647.805,26.744 654.066,24.415 659.297,25.396C662.826,26.058 663,26.276 663,30.045C663,32.997 662.596,34 661.406,34C660.53,34 659.571,33.076 659.276,31.948C658.622,29.446 654.684,29.639 654.197,32.197C653.98,33.334 655.194,34.568 657.871,35.934C662.168,38.126 665,41.397 665,44.167C665,45.114 663.961,47.096 662.691,48.573C660.874,50.685 659.329,51.326 655.441,51.581C652.724,51.759 649.375,51.569 648,51.158ZM628.418,46.393C629.347,46.037 630,44.613 630,42.945C630,40.222 629.875,40.148 626.998,41.15C623.287,42.444 622.47,43.656 624.036,45.544C625.372,47.153 626.079,47.29 628.418,46.393ZM548,35.191C548,34.746 547.412,33.579 546.694,32.596C544.943,30.201 540.946,30.879 539.891,33.75C539.112,35.871 539.321,36 543.532,36C545.99,36 548,35.636 548,35.191ZM620.25,22.338C618.115,21.476 618.727,16.222 621.048,15.485C624.862,14.274 627.644,18.956 624.8,21.8C623.55,23.05 622.363,23.191 620.25,22.338ZM631.2,21.8C628.356,18.956 631.138,14.274 634.952,15.485C636.379,15.938 637,16.991 637,18.96C637,22.618 633.655,24.255 631.2,21.8Z" style="fill:rgb(0,126,138);"/>
        </g>
    </g>
</svg>
