<svg xmlns="http://www.w3.org/2000/svg" fill="none" viewBox="0 0 169 54">
	<g clipPath="url(#a)">
		<mask id="b" width="169" height="54" x="0" y="0" maskUnits="userSpaceOnUse" style="mask-type:luminance">
			<path fill="#fff" d="M167 1h.2c0-.3 0-.2-.2 0Zm-.3.2s.2-.1.3-.4l-.3.3Zm1.7 51.2c.6-.6.2-1.8.2-2.9v-7.1l-1.1-1 .3-.8c.3.1.5 0 .7-.1.1-8.3.3-19.3.1-28V7c0-1.4.4-5.5-.8-5.6l-.7.4-.7-.2c-.3.2-.3.5-.6.5-.6-.5-2.2-.1-3-.3l3.7-.9c0-.2.2-.4 0-.4L90 .4c-3 0-7.5.5-10.4.5C59 1 41.9.4 40.4.4h-3.9L35 0c-.5 0-.8.1-1.3.3H29C21.5.2 13.5.6 4.7.4c-.2 0-.6-.2-.8 0-.1-.3-.4-.4-.5-.4l-1 .5v.7L.8 1C.7.9.7.5.4.6 0 .7 0 2.3.2 2.7c.2 3.8 0 7.7 0 12v9.1c-.2 1-.2 2 0 3 0 .3.2.6.4.8l.1 1v2.7C0 32.5.2 35 .2 37v8.4c0 1.7 0 3.4.2 5-.3.3-.3.5 0 .8-.3.1-.4.3-.4.6.7 0 .2.6.5 1 1.1.3 2.2.3 3.4.3h25.3l.6-.5h2l.5.5 129.2.7 2.3.2c.3-.1.5-.5.9-.5h1.1a5 5 0 0 0 3.2-.6c-.1-.2-.2-.4-.6-.5Zm-2.2-43.7h.1l-.1.2c-.1.3 0-.2 0-.2ZM2.2 4.5v-.9h.3c0 .3 0 .6.2.9h-.6Zm.1 6.8c.3 1.5.3 3 .2 4.5a20 20 0 0 1-.2-4.5Zm.2 39c.2 0 .8-.4.8.2-.4-.3-.8 0-.8-.3Zm37.2.9h.3-.3Zm.6 0c0-.1.7-.4.5 0h-.5Zm126.4-3.7c-.5-.4-.2-1.6-1-1.5-.6 0-.2.7-.5 1.3 0 .2-.4.1-.5.2-.4 1.3-.4 2.4-.7 3.7-1.1.1-59.9.6-63.8.1a19 19 0 0 0-5.1 0l-53.2-.1c1.6-.5 3.8.2 5.4-.4-.5-.3-1-.4-1.5-.3h-3.5c-.4-.3-.8-.3-1 0l-1-.1-.5-.4c-3 .5-6 .6-9 .5L31 46v-5.4C31 36 29.9 31.2 27.8 27c-.3-1.2-1-2.2-1.5-3.2-.5-.3-.8-.8-1-1.3l.8.3c-.5-1.5-1.8-2.3-3.1-3-1.2-1-2.5-1.6-3.9-2.2a4 4 0 0 1-2-.6c-.6-.1-1.1-.2-1.7-.6l1-.2-3.4-1.8a14 14 0 0 1-3.5-5c-.2-.4-.3-1.2-1-1.2-.3 1 1.1 2.3 0 2.7l-.3-1.2v3c-.1 3.7 1 7.8.8 11 1 2.2 2.3 4.3 3.6 6.5-.2.2-.7 0-.5.2.6 1.4 1.4 2.7 2.5 3.7.8.7 1.6 1.6 2.3 2 1.3 1 2.7 1.3 3.6 2.4 3.6 1.3 7.4 2.1 9.3 5.4 0 2.2-.2 4.4-.5 6.7h-1.1l-1.2-.3c-.4 0-.5.2-.7.2l-1-.3-2.4.1h-13l-.9.2c-.4-.2-.9-.3-1.4-.3l-.4.1c-.9 0-1.7 0-2.5-.2.3-.3 1.5 0 1.3-1L4.8 48c.1-.4.1-1-.3-1 0-.4 0-.7-.4-1H4c-.4 0-.3.3-.5.3 0-.4-.2-.6-.5-.6.4-2.7.4-5.4.2-8.1-.2-1 .2-2-.4-2.8.1-4-.2-7.9 0-12l.5-.4V19c-.1-1.5.2-3.9 0-5.8l-.1-4.6c0-.6 0-1.3.2-2-.2-.3-.5-.3-.8-.2 0-.4 0-.9.2-1.4l.6 1H4L4 3.8h6.2c1.2.2 2.5.2 3.7 0 1-.2 2.4.3 3.1-.3-.4-.6-1.4-.4-2.3-.4-.5 0-1-.3-1.4-.3H11c.4-.2.9-.3 1.2-.2h5l.3.3 9 .3h6.1c6.1-.3 125.8.6 132.2-.5 0-.4-.4-.1-.3-.4h.6c.3 2.7-.2 5.1 0 7.2-.3.6-.3 1.2-.2 1.9a9 9 0 0 0-.1 3c.6.6 0 1.7.2 2.9l.1.9v2.1c0 .7-.2 1.7.4 1.7.2 0 .3-.2.4-.4 0-1.3.2-2.6 0-3.5.4-2.4.2-6.2.5-8.7a24 24 0 0 1 0 4.1l-.1.5.1.8c-.2.2-.2.7-.1 1l-.1.3c.1.5.1 1-.1 1.4-.2 1.2-.2 3-.2 4.2 0 .5 0 1 .3 1.3 0 2-.3 3.9-.3 6l.2.7-.2.4.2.4c0 .3 0 .5-.2.7l.4.7c-.1.5-.1 1 0 1.6v3l-.1.4c.1 2.2-.5 4.5-.3 7 .8-.7.4-2.3.8-3.3 0 1.3-.3 2.7-.2 4.1.4.8.4 1.9.2 2.8ZM24.3 33.3c-.4-1-1-2-1.8-2.8-1.3-1.5-6.4-4.6-6.4-4.8a3 3 0 0 1-1.2-1.5h-.1c0-.4-.2-.7-.6-.7-.6-1.3-1.4-2.4-2-3.8 1.4 2.1 3.3 3.8 4.6 6.1a8 8 0 0 1 3.7 2.1c1 0 3.4 4.3 4.1 5.4l-.2.2s.2 0 .1.2l.3-.1c-.3.3.6.8.4 1.3.3 0 .4.2.4.3l-.3-.1c.2.2.5.1.5.5-.4 0-.3-.6-.6-.9-.4-.4-.7-1.1-1-1.7 0 0 .2.1 0 .3ZM21 30.4c-.7-.3-1.3-.8-1.8-1.4.8.3 1.3.8 1.8 1.4Zm146.6-12.7.1.1v2c0 .6.2 1.6-.5 1.6 0-1 .3-2.5.4-3.7Z" />
		</mask>
		<g mask="url(#b)">
			<path fill="#254F2A" d="M168.4 0H0v54h168.4V0Z" />
		</g>
		<mask id="c" width="12" height="22" x="31" y="24" maskUnits="userSpaceOnUse" style="mask-type:luminance">
			<path fill="#fff" d="M41.6 28.2c-.4-.7-.7-1.5-1.3-2.2 0-.4 0-1.2-.3-1.3-.4 4.5-3.6 6-6 8.3-.1.8-.8 1.3-1 2-.3.5-.2 1.2-.6 1.2-.2 1.4-.5 2.9-.9 4.3.2 1.4.2 2.9.2 4.5.2.2.4.3.4.5 1-1 1.8-2.5 2.8-3.6 1.1-1 2.3-1.9 3.6-2.7.4-.8 1-1.6 1.8-2.1.7-1.5 1.6-2.6 2-4.3-.5-1.5-.2-3.2-.7-4.6Zm-6.8 10.5c.3-2 3.2-4.6 3.7-5a52.6 52.6 0 0 0-3.7 5Zm4.7-6.6-.6 1s.2-.6.6-1.1l.1-.6v.7Z" />
		</mask>
		<g mask="url(#c)">
			<path fill="#254F2A" d="m48.1 21.1-18.7-2L26 49.4l18.7 2 3.4-30.3Z" />
		</g>
		<path fill="#254F2A" fillRule="evenodd" d="M144.7 24.8c-1.2-.2-2.8-1.8-2.8-2.7 0-.4.3-1.1.7-1.6.6-.7.6-1 .3-1.5s-.3-.9.3-1.4c.6-.7.6-.8 0-2-.5-1-.6-1.5-.2-2.6.6-2 2-2.7 6.2-2.7 3 0 3.3 0 3.3.8 0 .5-.3.9-.8 1-.5.2-.6.4-.5 1.6.2 1.1 0 1.6-.7 2.5-.8.9-1.3 1-3 1.2-3 .3-2.7 1 .4 1.3 2.6.2 3.8 1.1 3.8 2.7 0 2.7-3 4.2-7 3.4Zm4.2-2.4c.6-.7-.4-1.7-1.9-1.8-2.2-.2-3.4 1.4-1.6 2.2 1 .4 2.9.2 3.5-.4ZM34 20.6c-3-1-4.5-3.4-4.5-6.9 0-2.7 1-4.9 3-6a8 8 0 0 1 7.2-.2c4.4 2.6 4.5 9.8.1 12.4a9.3 9.3 0 0 1-5.8.7Zm41-.1c-1.2-.7-1.3-1.1-1.3-4.6 0-2.7-.2-3.3-.6-3.3-.4 0-.6-.4-.6-1 0-.5.2-.9.6-.9.4 0 .5-.4.5-1.1 0-.9.3-1.2 1-1.4 1.4-.3 2 0 2 1.4 0 1 .2 1.1 1.2 1.1s1.1.2 1.1 1-.1.9-1.1.9h-1.1v6h1c.7 0 1.2.3 1.4.7.3.7.3.6-.8 1.2-1 .5-2.4.5-3.3 0Zm6.7-.5c-1.1-1.2-1.2-3 0-4 .4-.4 1.7-1 2.8-1.4l2-.8c0-1.3-3-1.7-3.3-.4-.1.4-.5.7-1 .7s-.6-.3-.6-1.5c0-1.4 0-1.5 1.4-1.9a6 6 0 0 1 4.2 0c1.6.6 2.3 2.1 2.3 5.3 0 2 .1 2.6.6 2.6.3 0 .5.4.5 1 0 .9-.1 1-1.8 1-1.1 0-2-.3-2-.5-.1-.3-.5-.3-1.1.2a3 3 0 0 1-4-.3Zm-37-.4c0-.7.1-1 .7-1 .7 0 .7-.2.7-3 0-2.7 0-3-.7-3.3-1-.2-1-1.4 0-1.7 1.7-.5 3.7-.3 3.7.3 0 .7.3.7 1.5 0 1.4-.8 2.7-.7 3.7.2l.8.8 1.3-.8c1.5-1 3-1 4 0 .8.6 1 1 1.1 4 .2 3 .3 3.5.9 3.7.4 0 .7.5.7 1 0 .6-.2.7-2.3.7h-2.2V17c0-4-.4-4.8-2.2-4.2-1 .4-1 .5-1.1 3.1-.2 2.5-.1 2.7.6 2.7.6 0 .8.3.8 1 0 .9-.1 1-2.3 1h-2.2v-3.9c0-4-.2-4.4-2.1-4-1 .3-1 .4-1 3.1 0 2.6.1 2.8.8 2.8.5 0 .7.3.7 1 0 1 0 1-3 1s-3 0-3-1Zm20.4.7c-.7-.2-.9-.5-.9-1.5 0-1.6.7-2 1.5-1 .5.7 1 .9 1.7.8 1.8-.2 1.5-1-.7-2.4-2.4-1.5-3-2.7-2-4.1.8-1.2 3.2-2 5-1.6 1.2.2 1.3.4 1.3 1.5 0 1.7-.7 2-1.5 1-.5-.6-.9-.8-1.4-.6-1.3.4-1 .8 1.2 2.3 1.8 1.1 2 1.5 2 2.4 0 .7 0 1.5-.3 1.9-.6 1.2-3.3 1.8-6 1.3Zm27-.7c0-.7.2-1 .8-1 .7 0 .7-.2.7-5.4s0-5.5-.7-5.5c-.6 0-.8-.3-.8-1 0-.8.1-.9 2.3-.9h2.3v6.4c0 6.2 0 6.4.7 6.4.6 0 .8.3.8 1 0 1 0 1-3 1s-3 0-3-1Zm7.6 0c0-.7.2-1 .7-1 .7 0 .8-.2.8-5.4s0-5.5-.8-5.5c-.5 0-.7-.3-.7-1 0-.8 0-.9 2.2-.9h2.3v6.4c0 6.2 0 6.4.7 6.4.6 0 .8.3.8 1 0 1 0 1-3 1s-3 0-3-1Zm7.5 0c0-.7.2-1 .8-1 .7 0 .7-.2.7-3 0-2.7 0-3-.7-3.3-1-.2-1-1.4 0-1.7 1.7-.5 3.7-.3 3.7.3 0 .7.3.7 1.5 0 1.5-.8 3-.7 4 .4.9.8 1 1.2 1 4.1 0 3 0 3.2.7 3.2.5 0 .8.3.8 1 0 .9-.2 1-2.3 1H115v-3.4c0-4-.2-4.6-1.2-4.6-1.8 0-2.2.6-2.2 3.4 0 2.4.1 2.6.8 2.6.5 0 .7.3.7 1 0 1 0 1-3 1s-3 0-3-1Zm14 0c0-.7.2-1 .7-1 .7 0 .8-.2.8-3 0-2.7-.1-3-.8-3.3-.4 0-.7-.5-.7-.8 0-.8 1-1.1 3-1.2h1.5v4.2c0 3.9 0 4.1.7 4.1.6 0 .8.3.8 1 0 1 0 1-3 1s-3 0-3-1Zm7.1 0c0-.7.2-1 .8-1 .7 0 .7-.2.7-3.2s0-3.2-.7-3.2c-1.3 0-1-1.3.4-1.6 2-.4 3.3-.3 3.3.3 0 .7.4.7 1.8 0 .6-.3 1.5-.6 2-.6 2.2 0 3 1.6 3 5.7 0 2.2.1 2.6.8 2.7.4.2.7.6.7 1 0 .7-.2.8-2.2.8h-2.3v-3.2c0-3.6-.4-4.7-1.6-4.7-1.7 0-2.2.8-2 3.4 0 2.2.1 2.5.9 2.6.6 0 .8.3.8 1 0 1 0 1-3.2 1-3.1 0-3.2 0-3.2-1ZM86 18.2c.4-.4.7-2.2.3-2.2l-1.3.4c-1 .4-1.5 1.4-1 2 .5.4 1.5.3 2-.2Zm-47.6-.8c2.6-2.6 1.1-8.2-2.2-8.2-2.4 0-4 2.6-3.4 5.9.5 2.9 3.7 4.2 5.6 2.3ZM148.2 14c.1-1.2 0-1.5-.6-1.7-1-.3-2 .4-2 1.5 0 1 .8 1.8 1.8 1.6.5 0 .7-.4.8-1.4ZM82.4 9c-1-1 0-2.8 1.4-2.3.5.1.8.5.8 1.3 0 1.3-1.3 2-2.2 1Zm4-.3c-.5-1 .2-2.2 1.2-2.2s1.7 1.3 1.1 2.2c-.2.4-.7.8-1.1.8-.4 0-1-.4-1.1-.8Zm36.5-.2c-.8-.7-.8-1.4 0-2.2.8-.8 1.1-.7 2 .2.8.7.8.9.3 1.6-.7 1-1.5 1.2-2.3.4ZM64.7 42c-.8-.6-1.2-2-1.2-4.4 0-2 0-2.3-.6-2.4a.9.9 0 0 1-.7-.9c0-.6.2-.7 2-.7h2v2.8c0 3.1.3 4.1 1.3 4.1 1.5 0 2-.5 2-2.8 0-2-.1-2.2-.9-2.4-.5-.2-.8-.6-.8-1 0-.6.2-.7 2.1-.7h2.2v3.6c0 3.4 0 3.6.6 3.6 1 0 .9 1.2 0 1.5-1.5.4-3.3.2-3.3-.3 0-.6-.5-.6-1.6 0-1 .6-2.3.6-3 0Zm46.1-.1c-3-1.6-3-6.2-.3-8 2.7-1.6 6.2.2 6.2 3.3 0 1.2-.4 1.3-3.2 1.3-2.2 0-2.6.4-1.6 1.5.7.6 1.6.6 2.8 0 .9-.4 1-.4 1.1.4.3 1.2-.3 1.7-2.3 2a4 4 0 0 1-2.7-.5Zm26.7.2c-.4-.2-1-.8-1.1-1.3-.6-1.7.1-2.6 2.5-3.6 2.4-.9 2.7-1.7.8-1.9-.9 0-1.1 0-1.3.6 0 .4-.4.7-.8.7-.5 0-.6-.3-.6-1.3 0-1.3 0-1.3 1.4-1.7 1.8-.5 3.4-.2 4.4.7.7.7.8 1 .8 3.3 0 2.4 0 2.7.7 2.8.4.1.6.5.6 1 0 .7-.1.7-1.6.7-1 0-1.7-.1-1.7-.3-.1-.3-.5-.2-1.2.1-1.2.7-2 .7-3 .2Zm-88-.7c0-.5.1-.9.6-1 .6-.1.6-.4.6-4.2 0-3.7 0-4-.6-4.1-.5-.1-.7-.5-.7-1 0-.7 0-.8 2.6-.8s2.7 0 2.7.8c0 .5-.3.9-.7 1-.6.1-.7.4-.7 2 0 1 .2 1.8.3 1.8a8 8 0 0 0 1.6-1.6c1.2-1.4 1.4-1.7 1.2-2.8l-.2-1.2h2.5c2.5 0 2.5 0 2.5.9 0 .5-.2.8-.5.8-.4 0-1.4.8-2.3 1.9l-1.7 1.8 1.5 2.3c1.1 1.5 1.8 2.2 2.4 2.4.7.1 1 .4 1 1 0 .7-.2.7-2 .7h-1.8l-1.3-2a12 12 0 0 0-1.5-2.2c-.1 0-.6.3-1 .8-.8.9-.7 1.8.3 1.8.5 0 .7.2.7.8 0 .8 0 .8-2.8.8-2.7 0-2.8 0-2.8-.7Zm24.8 0c0-.7.2-.9.7-.9.6 0 .7-.2.7-2.6s-.1-2.7-.7-2.9c-.9-.2-.8-1.3 0-1.5 1.5-.4 3.3-.2 3.3.3 0 .6.2.6 1.3 0 1.2-.7 2.5-.6 3.3.1.6.6.6.6 1.8 0 1.6-.8 2.5-.8 3.5 0 .7.6.8 1 .9 3.6 0 2.7.1 3 .7 3 .5 0 .6.2.6.8 0 .8 0 .8-2 .8h-2v-3c0-3.5-.3-4.2-1.8-3.6-.8.2-.9.4-1 2.6 0 2.2 0 2.4.6 2.4.5 0 .7.2.7.8 0 .8-.1.8-2 .8h-2V39c0-3.6-.2-4-1.8-3.4-.7.4-.8.6-.8 2.7 0 2 0 2.3.6 2.3.5 0 .7.2.7.8 0 .8 0 .8-2.6.8s-2.7 0-2.7-.8Zm17.1 0c0-.7.2-.9.7-.9.6 0 .6-.2.6-2.6s0-2.7-.6-2.9c-1-.3-.8-1.3.3-1.5 1.9-.4 3-.3 3 .3 0 .4.1.5.5.3 2.1-.9 3-1 4-.3.9.7.9.7 2 .1 1.6-.9 2.8-.8 3.6.3.6.7.7 1.3.7 3.6 0 2.5 0 2.7.6 2.7.5 0 .7.2.7.8 0 .8 0 .8-2 .8h-2V39c0-3.6-.1-4-1.7-3.5-.8.2-.9.3-.9 2.6 0 2.2.1 2.5.7 2.6.4.1.6.5.6.9 0 .6-.1.6-2 .6h-1.9v-3c0-3.5-.3-4.2-1.9-3.6-.8.2-.9.4-1 2.6 0 2.2 0 2.4.6 2.4.5 0 .7.2.7.8 0 .8 0 .8-2.7.8-2.5 0-2.6 0-2.6-.8Zm26.6 0c0-.7.2-.9.7-.9.6 0 .6-.2.6-4.8 0-4.5 0-4.7-.6-4.7-.5 0-.7-.2-.7-.8 0-.8 0-.9 2-.9h2V35c0 5.4 0 5.6.6 5.6.5 0 .6.2.6.8 0 .8 0 .8-2.6.8s-2.6 0-2.6-.8Zm6.2 0c0-.7.2-.9.7-.9.6 0 .6-.2.6-2.8 0-2.6 0-2.8-.6-2.8-1.1 0-.8-1.2.4-1.4 1.7-.4 2.9-.3 2.9.3s.3.6 1.5 0c.5-.3 1.3-.5 1.7-.5 2 0 2.7 1.4 2.7 5 0 1.9 0 2.2.6 2.3.4.1.7.5.7.9 0 .6-.2.6-2 .6h-2v-2.8c0-3.1-.3-4-1.4-4-1.5 0-1.9.6-1.8 3 .1 1.8.2 2 .9 2.1.5.1.7.4.7 1 0 .7 0 .7-2.8.7-2.7 0-2.8 0-2.8-.8Zm22.7.5c-.7-.2-.8-.5-.8-1.4 0-1.3.9-1.8 1.2-.6.1.5.4.6 1.3.5 1.7-.1 1.6-1-.4-2-1.8-1-2.3-2-1.8-3.4.4-1.1 2.5-2 4.2-1.6 1.1.2 1.2.3 1.2 1.5 0 1-.1 1.3-.5 1.3-.3 0-.6-.3-.7-.6-.2-.9-1.5-.8-1.7 0 0 .4.3.8 1.2 1.3 1.4.7 2.4 1.8 2.4 2.7 0 .3-.4 1-.8 1.4-.6.7-1.1 1-2.4 1L147 42Zm-6.5-1.6c.4-.1.6-.6.6-1.1 0-1 0-1-1-.6-1.2.4-1.5.8-1 1.4.4.6.7.6 1.4.3Zm-26.3-3.7-.5-.8c-.5-.8-1.9-.6-2.2.4-.3.7-.2.7 1.2.7.8 0 1.5-.1 1.5-.3Zm23.7-4.2c-.7-.3-.5-2 .2-2.2 1.3-.4 2.2 1.1 1.3 2-.4.4-.8.5-1.5.2Zm3.6-.2c-1-.9 0-2.4 1.2-2 .5.1.7.5.7 1.1 0 1.2-1.1 1.7-2 1Z" clipRule="evenodd" />
	</g>
	<defs>
		<clipPath id="a">
			<path fill="#fff" d="M0 0h169v54H0z" />
		</clipPath>
	</defs>
</svg>
