<svg width="169" height="54" viewBox="0 0 169 54" fill="none" xmlns="http://www.w3.org/2000/svg">
<g clipPath="url(#clip0_21_235)">
<mask id="mask0_21_235" style="mask-type:luminance" maskUnits="userSpaceOnUse" x="0" y="0" width="169" height="54">
<path d="M167.005 0.93913H167.24C167.122 0.704348 167.122 0.821739 167.005 0.93913ZM166.653 1.17391C166.77 1.17391 166.888 1.05652 167.005 0.821739L166.653 1.05652V1.17391ZM168.413 52.3565C169 51.7696 168.648 50.5956 168.648 49.5391V42.3783C168.296 42.0261 167.944 41.6739 167.474 41.3217L167.826 40.6174C168.061 40.7348 168.296 40.6174 168.531 40.5C168.648 32.1652 168.765 21.2478 168.648 12.5609C168.648 10.9174 168.531 9.15652 168.531 7.04348C168.531 5.63478 169 1.52609 167.826 1.4087L167.122 1.76087C166.887 1.76087 166.653 1.64348 166.418 1.64348C166.066 1.76087 166.066 2.11304 165.831 2.11304C165.244 1.64348 163.601 1.99565 162.78 1.76087C164.54 1.2913 165.362 1.17391 166.535 0.93913C166.535 0.704348 166.653 0.469565 166.418 0.469565C163.953 0.469565 124.638 0.352174 90.016 0.352174C87.0819 0.352174 82.5049 0.93913 79.5708 0.93913C59.0326 0.93913 41.8979 0.352174 40.3722 0.352174C39.0813 0.352174 37.7903 0.469565 36.4993 0.352174C36.0299 0.352174 35.4431 0.117391 34.9736 0.117391C34.5042 0.117391 34.1521 0.234783 33.6826 0.352174H31.6875C30.7486 0.469565 29.9271 0.469565 28.9882 0.352174C21.4771 0.234783 13.4965 0.586957 4.69444 0.469565C4.45972 0.352174 4.10764 0.234783 3.87292 0.352174C3.75556 0.117391 3.52083 0 3.40347 0L2.34722 0.469565C2.46458 0.704348 2.46458 0.93913 2.34722 1.17391C1.87778 1.17391 1.40833 1.05652 0.938889 1.05652C0.704167 0.93913 0.704167 0.469565 0.352083 0.586957C0 0.704348 0.117361 2.34783 0.234722 2.7C0.352083 6.45652 0.234722 10.4478 0.234722 14.6739V23.8304C0 24.7696 0 25.8261 0.117361 26.8826C0.234722 27.1174 0.352083 27.3522 0.586806 27.587C0.704167 27.9391 0.704167 28.2913 0.704167 28.6435C0.821528 29.5826 0.704167 30.6391 0.704167 31.3435C0 32.5174 0.234722 34.9826 0.234722 36.9783V45.4304C0.117361 47.0739 0.234722 48.8348 0.352083 50.4783C0.117361 50.713 0.117361 50.9478 0.352083 51.1826C0.117361 51.3 0 51.5348 0 51.7696C0.704167 51.887 0.234722 52.3565 0.469444 52.8261C1.64306 53.0609 2.69931 53.0609 3.87292 53.0609H25.5847C26.7583 53.1783 28.0493 53.1783 29.2229 53.0609C29.4576 52.9435 29.575 52.8261 29.8097 52.5913H31.8049C31.9222 52.8261 32.0396 52.9435 32.2743 53.0609C37.0861 53.1783 156.442 53.7652 161.489 53.7652C162.31 53.8826 163.015 54 163.836 54C164.071 53.8826 164.306 53.5304 164.658 53.5304H165.831C166.888 53.6478 168.061 53.5304 169 52.9435C168.883 52.7087 168.765 52.4739 168.413 52.3565ZM166.183 8.68696H166.301C166.301 8.80435 166.301 8.92174 166.183 8.92174C166.066 9.15652 166.183 8.68696 166.183 8.68696ZM2.1125 4.46087C2.1125 4.22609 2.1125 3.87391 2.22986 3.63913H2.46458C2.46458 3.87391 2.58194 4.22609 2.69931 4.46087H2.1125ZM2.34722 11.2696C2.58194 12.7957 2.58194 14.3217 2.46458 15.8478C2.22986 14.3217 2.22986 12.7957 2.34722 11.2696ZM2.46458 50.2435C2.69931 50.3609 3.28611 49.8913 3.28611 50.4783C2.93403 50.2435 2.46458 50.4783 2.46458 50.2435ZM39.6681 51.1826C39.5507 51.1826 40.0201 51.0652 40.0201 51.1826C40.0201 51.3 39.9028 51.0652 39.6681 51.1826ZM40.2549 51.1826C40.3722 51.0652 40.959 50.8304 40.8417 51.1826H40.2549ZM166.653 47.5435C166.183 47.0739 166.535 45.9 165.714 46.0174C165.127 46.0174 165.479 46.7217 165.244 47.3087C165.244 47.5435 164.775 47.4261 164.658 47.5435C164.306 48.8348 164.306 49.8913 163.953 51.1826C162.897 51.3 104.099 51.7696 100.226 51.3C98.466 51.0652 96.7056 51.0652 95.0625 51.3C68.3042 51.3 43.541 51.1826 41.8979 51.1826C43.541 50.713 45.6535 51.4174 47.2965 50.8304C46.8271 50.4783 46.2403 50.3609 45.7708 50.4783C44.5972 50.3609 43.4236 50.3609 42.25 50.4783C41.8979 50.2435 41.5458 50.2435 41.3111 50.4783C40.959 50.3609 40.6069 50.3609 40.2549 50.3609C40.0201 50.2435 39.9028 50.1261 39.7854 50.0087C36.8514 50.4783 33.8 50.5956 30.7486 50.4783C30.866 49.0696 30.9833 47.7783 31.1007 46.1348V45.0783C30.9833 43.6696 30.9833 42.1435 31.1007 40.7348C30.9833 35.9217 29.9271 31.2261 27.8146 26.8826C27.4625 25.7087 26.8757 24.6522 26.2889 23.713C25.8194 23.3609 25.4674 22.8913 25.2326 22.4217C25.4674 22.4217 25.8194 22.5391 26.0542 22.6565C25.5847 21.2478 24.2938 20.4261 23.0028 19.7217C21.8292 18.7826 20.5382 18.0783 19.1299 17.4913C18.4257 17.4913 17.7215 17.2565 17.1347 16.9043C16.5479 16.787 15.9611 16.6696 15.3743 16.3174C15.7264 16.2 16.0785 16.2 16.4306 16.0826C15.2569 15.4957 14.0833 14.9087 13.0271 14.3217C11.5014 12.913 10.3278 11.2696 9.50625 9.27391C9.27153 8.92174 9.15417 8.1 8.56736 8.1C8.21528 9.03913 9.62361 10.4478 8.45 10.8C8.45 10.4478 8.33264 9.97826 8.21528 9.62609V12.5609C8.09792 16.3174 9.15417 20.4261 9.03681 23.5957C10.0931 25.8261 11.2667 27.9391 12.5576 30.0522C12.4403 30.287 11.8535 30.0522 12.0882 30.287C12.675 31.6957 13.4965 32.987 14.5528 34.0435C15.3743 34.7478 16.1958 35.5696 16.9 36.0391C18.191 36.9783 19.5993 37.3304 20.5382 38.387C24.059 39.6783 27.9319 40.5 29.8097 43.787C29.8097 46.0174 29.575 48.2478 29.3403 50.4783H28.1667C27.8146 50.4783 27.3451 50.2435 26.9931 50.2435C26.641 50.2435 26.5236 50.3609 26.2889 50.3609C26.0542 50.3609 25.5847 50.1261 25.2326 50.1261C24.4111 50.1261 23.7069 50.1261 22.8854 50.2435H9.97569C9.74097 50.2435 9.38889 50.3609 9.03681 50.3609C8.56736 50.2435 8.09792 50.1261 7.62847 50.1261C7.39375 50.1261 7.27639 50.2435 7.15903 50.2435C6.3375 50.2435 5.51597 50.1261 4.69444 50.0087C5.04653 49.6565 6.22014 50.0087 5.98542 48.9522C5.63333 48.6 5.16389 48.3652 4.81181 48.1304C4.92917 47.6609 4.92917 47.1913 4.45972 47.0739C4.57708 46.7217 4.45972 46.3696 4.10764 46.1348H3.87292C3.52083 46.0174 3.63819 46.3696 3.40347 46.3696C3.40347 46.0174 3.16875 45.7826 2.93403 45.7826C3.28611 43.0826 3.28611 40.3826 3.05139 37.6826C2.93403 36.6261 3.28611 35.687 2.69931 34.8652C2.81667 30.8739 2.46458 27 2.69931 22.8913C2.81667 22.7739 3.05139 22.6565 3.16875 22.5391C3.28611 21.3652 3.28611 20.0739 3.28611 18.9C3.05139 17.3739 3.40347 15.0261 3.28611 13.1478C3.16875 11.2696 3.05139 9.86087 3.05139 8.45217C3.05139 7.86522 3.05139 7.16087 3.28611 6.57391C3.05139 6.22174 2.81667 6.22174 2.46458 6.33913C2.46458 5.86957 2.58194 5.4 2.69931 4.93043C2.93403 5.16522 3.05139 5.51739 3.28611 5.86957H3.99028C3.99028 5.16522 3.99028 4.46087 4.10764 3.75652H10.3278C11.5014 3.9913 12.7924 3.9913 13.966 3.75652C15.0222 3.63913 16.4306 4.1087 17.1347 3.52174C16.6653 2.93478 15.7264 3.05217 14.7875 3.05217C14.3181 3.05217 13.8486 2.81739 13.3792 2.81739H11.0319C11.384 2.58261 11.8535 2.46522 12.2056 2.58261H17.1347L17.4868 2.93478C20.3035 2.93478 23.1201 3.05217 26.4063 3.16957C28.5188 3.28696 30.5139 3.16957 32.6264 3.16957C38.7292 2.93478 158.438 3.75652 164.775 2.7C164.892 2.34783 164.423 2.58261 164.54 2.34783H165.127C165.362 5.04783 164.892 7.39565 165.01 9.5087C164.775 10.0957 164.775 10.6826 164.892 11.387C164.658 12.4435 164.658 13.3826 164.775 14.4391C165.362 15.0261 164.892 16.0826 165.01 17.2565C165.01 17.4913 165.127 17.8435 165.127 18.1957C165.127 18.9 165.01 19.6043 165.01 20.3087C165.01 21.013 164.892 21.9522 165.479 21.9522C165.714 21.9522 165.831 21.8348 165.949 21.6C165.831 20.3087 166.066 19.0174 165.949 18.0783C166.301 15.7304 166.066 11.8565 166.418 9.3913C166.535 10.6826 166.535 12.0913 166.418 13.5C166.418 13.6174 166.301 13.8522 166.301 13.9696C166.418 14.2043 166.418 14.5565 166.418 14.7913C166.183 15.0261 166.183 15.4957 166.301 15.7304C166.183 15.8478 166.183 15.9652 166.183 16.0826C166.301 16.5522 166.301 17.0217 166.066 17.4913C165.949 18.6652 165.949 20.5435 165.949 21.7174C165.831 22.187 165.831 22.6565 166.183 23.0087C166.183 25.0043 165.949 26.8826 165.949 28.9957C165.949 29.2304 166.066 29.5826 166.066 29.7L165.949 30.0522C165.949 30.1696 166.066 30.4043 166.066 30.5217C166.066 30.7565 166.066 30.9913 165.949 31.2261L166.301 31.9304C166.183 32.4 166.183 32.8696 166.301 33.4565C166.183 34.513 166.183 35.4522 166.301 36.5087C166.301 36.6261 166.183 36.7435 166.183 36.8609C166.301 39.0913 165.714 41.4391 165.949 43.9043C166.653 43.2 166.301 41.5565 166.653 40.6174C166.77 41.9087 166.418 43.3174 166.535 44.7261C166.887 45.5478 166.888 46.6043 166.653 47.5435ZM24.2938 33.3391C23.9417 32.2826 23.2375 31.3435 22.5333 30.5217C21.2424 28.9957 16.0785 25.9435 16.0785 25.7087C15.4917 25.3565 15.1396 24.7696 14.9049 24.1826H14.7875C14.7875 23.8304 14.5528 23.4783 14.2007 23.4783C13.6139 22.187 12.7924 21.1304 12.2056 19.7217C13.6139 21.8348 15.4917 23.4783 16.7826 25.8261C18.191 26.1783 19.4819 26.8826 20.5382 27.9391C21.4771 27.9391 23.9417 32.1652 24.6458 33.3391L24.4111 33.4565C24.4111 33.5739 24.6458 33.5739 24.5285 33.6913C24.5285 33.5739 24.6458 33.5739 24.7632 33.5739C24.5285 33.9261 25.35 34.3957 25.2326 34.8652C25.4674 34.8652 25.5847 35.1 25.5847 35.2174L25.35 35.1C25.4674 35.3348 25.8194 35.2174 25.8194 35.5696C25.35 35.5696 25.4674 34.9826 25.2326 34.7478C24.7632 34.2783 24.5285 33.5739 24.2938 32.987C24.1764 32.987 24.4111 33.1043 24.2938 33.3391ZM21.0076 30.4043C20.3035 30.0522 19.7167 29.5826 19.2472 28.9957C19.9514 29.3478 20.5382 29.8174 21.0076 30.4043ZM167.592 17.7261L167.709 17.8435V19.8391C167.709 20.4261 167.944 21.3652 167.24 21.3652C167.24 20.4261 167.474 18.9 167.592 17.7261Z" fill="white"/>
</mask>
<g mask="url(#mask0_21_235)">
<path d="M168.413 0H0V54H168.413V0Z" fill="#254F2A"/>
</g>
<mask id="mask1_21_235" style="mask-type:luminance" maskUnits="userSpaceOnUse" x="31" y="24" width="12" height="22">
<path d="M41.6063 28.2357C41.2375 27.4674 40.8686 26.6992 40.3102 26.0008C40.3502 25.6417 40.3504 24.8237 40.0013 24.6939C39.5914 29.1926 36.4193 30.7476 33.9852 33.0211C33.8952 33.829 33.2069 34.2976 32.9374 35.0856C32.7079 35.5144 32.8175 36.1628 32.3587 36.2026C32.1988 37.639 31.9491 39.0653 31.5199 40.4717C31.7191 41.9481 31.7387 43.4045 31.7483 44.9506C31.9078 45.1502 32.0674 45.3498 32.1371 45.5393C33.1647 44.4723 33.8732 43.0062 34.9007 41.9392C36.0081 40.972 37.2051 40.0148 38.472 39.2472C38.931 38.3895 39.5595 37.6416 40.3476 37.0932C40.9663 35.6171 41.9141 34.4503 42.3733 32.7747C41.8051 31.348 42.0947 29.5625 41.6063 28.2357ZM34.8017 38.7471C35.1114 36.7821 37.9545 34.0998 38.4533 33.701C37.1863 35.2866 35.9092 36.962 34.8017 38.7471ZM39.5408 32.0953L38.8823 33.1126C38.8823 33.1126 39.1318 32.5042 39.4611 31.9956C39.5708 31.826 39.6008 31.5567 39.6208 31.3772C39.6806 31.6565 39.6606 31.836 39.5408 32.0953Z" fill="white"/>
</mask>
<g mask="url(#mask1_21_235)">
<path d="M48.1206 21.1457L29.3606 19.0542L25.9826 49.3973L44.7426 51.4888L48.1206 21.1457Z" fill="#254F2A"/>
</g>
<path fillRule="evenodd" clipRule="evenodd" d="M144.662 24.7879C143.531 24.5673 141.897 22.9749 141.897 22.0927C141.897 21.6907 142.216 20.9684 142.606 20.4872C143.153 19.8105 143.221 19.4639 142.905 18.9578C142.59 18.4528 142.65 18.1341 143.167 17.5623C143.8 16.863 143.802 16.7518 143.203 15.5943C142.68 14.5816 142.643 14.1215 142.99 12.9613C143.585 10.9752 145.092 10.3408 149.213 10.3408C152.252 10.3408 152.455 10.3902 152.455 11.1306C152.455 11.5881 152.155 11.9985 151.741 12.1067C151.155 12.2602 151.062 12.5453 151.216 13.7006C151.366 14.8181 151.216 15.3276 150.486 16.1766C149.727 17.0588 149.19 17.2768 147.413 17.4242C144.542 17.6622 144.841 18.3822 147.935 18.6813C150.513 18.931 151.707 19.7981 151.695 21.4146C151.677 24.1301 148.674 25.5701 144.662 24.7879ZM148.853 22.3926C149.531 21.7137 148.518 20.721 147.018 20.5939C144.784 20.4053 143.575 22.0316 145.385 22.7897C146.341 23.1899 148.277 22.9681 148.853 22.3926ZM34.0255 20.5618C31.0674 19.6016 29.4578 17.1957 29.4578 13.7353C29.4578 11.0122 30.5245 8.83711 32.4437 7.6468C34.3445 6.46743 37.801 6.41425 39.7127 7.53441C44.0949 10.1032 44.1718 17.3285 39.8432 19.8573C38.4737 20.6573 35.4478 21.0238 34.0255 20.5618ZM74.9691 20.4506C73.77 19.7706 73.6614 19.3941 73.655 15.9039C73.6505 13.2246 73.543 12.6038 73.0838 12.6038C72.732 12.6038 72.5182 12.2478 72.5182 11.6609C72.5182 11.074 72.732 10.718 73.0838 10.718C73.4601 10.718 73.6493 10.3416 73.6493 9.59369C73.6493 8.70925 73.8503 8.41884 74.5912 8.2329C76.0203 7.87423 76.6658 8.29174 76.6658 9.57483C76.6658 10.5935 76.7888 10.718 77.797 10.718C78.7521 10.718 78.9282 10.8647 78.9282 11.6609C78.9282 12.4571 78.7521 12.6038 77.797 12.6038H76.6658V18.6383H77.7567C78.4207 18.6383 78.9407 18.8808 79.0854 19.258C79.3547 19.9603 79.3935 19.901 78.2932 20.4732C77.2559 21.0122 75.9438 21.0035 74.9691 20.4506ZM81.7392 19.9753C80.5541 18.7903 80.5175 17.058 81.6547 15.9982C82.117 15.5671 83.3896 14.9546 84.4827 14.6367C85.5754 14.3187 86.4694 13.9352 86.4694 13.7839C86.4694 12.5167 83.5057 12.1323 83.1852 13.3581C83.0759 13.7756 82.6709 14.1124 82.2776 14.1124C81.7022 14.1124 81.5676 13.8303 81.5676 12.6215C81.5676 11.22 81.6525 11.1072 82.9816 10.738C84.7892 10.2356 85.6916 10.2401 87.1787 10.7587C88.8423 11.3392 89.4859 12.795 89.4859 15.9794C89.4859 18.0914 89.6024 18.6383 90.0515 18.6383C90.4033 18.6383 90.6171 18.9944 90.6171 19.5812C90.6171 20.4592 90.4893 20.5241 88.7631 20.5241C87.667 20.5241 86.8484 20.3412 86.7601 20.0761C86.6542 19.7585 86.3465 19.8132 85.7021 20.2646C84.3979 21.1781 82.827 21.0638 81.7392 19.9753ZM44.6156 19.5812C44.6156 18.8899 44.8166 18.6383 45.3698 18.6383C46.0617 18.6383 46.1239 18.3868 46.1239 15.5856C46.1239 12.8505 46.0454 12.5125 45.3698 12.336C44.3457 12.0678 44.4101 10.8609 45.464 10.5785C47.1393 10.1296 49.1404 10.308 49.1404 10.9066C49.1404 11.6009 49.4341 11.6009 50.6486 10.9066C51.9883 10.1406 53.2963 10.2171 54.2544 11.1178L55.0813 11.8944L56.3528 11.1189C57.9327 10.1557 59.3531 10.1289 60.4805 11.042C61.2406 11.6579 61.3658 12.1591 61.5095 15.1587C61.6501 18.1069 61.7697 18.5991 62.382 18.7594C62.7919 18.8665 63.0916 19.2787 63.0916 19.7343C63.0916 20.4483 62.8741 20.5241 60.8293 20.5241H58.5669V16.9871C58.5669 12.9561 58.1691 12.201 56.3762 12.8297C55.4173 13.1658 55.3558 13.334 55.251 15.9118C55.1481 18.4426 55.1956 18.6383 55.9109 18.6383C56.4817 18.6383 56.6816 18.8831 56.6816 19.5812C56.6816 20.4823 56.5809 20.5241 54.4192 20.5241H52.1569V16.7408C52.1569 12.6434 51.9702 12.2851 50.0823 12.7588C49.183 12.9847 49.1404 13.1224 49.1404 15.8168C49.1404 18.3868 49.2075 18.6383 49.8945 18.6383C50.4476 18.6383 50.6486 18.8899 50.6486 19.5812C50.6486 20.5083 50.5985 20.5241 47.6321 20.5241C44.6658 20.5241 44.6156 20.5083 44.6156 19.5812ZM65.0712 20.2578C64.3914 20.127 64.2228 19.8418 64.2228 18.8228C64.2228 17.2085 64.8951 16.7752 65.7141 17.8614C66.1666 18.4614 66.6556 18.6659 67.4244 18.5757C69.1574 18.3728 68.9372 17.6513 66.7065 16.2241C64.3397 14.7095 63.7817 13.5222 64.7454 12.0509C65.4965 10.9043 67.8505 10.1594 69.654 10.4977C70.8945 10.7304 71.0099 10.8613 71.0099 12.0328C71.0099 13.6625 70.3387 14.0909 69.5092 12.9911C69.0375 12.3654 68.6495 12.207 68.0526 12.3964C66.8147 12.7894 67.0512 13.2144 69.3131 14.6619C71.0902 15.7991 71.387 16.1547 71.387 17.1497C71.387 17.7882 71.2207 18.6214 71.0178 19.0008C70.3655 20.2201 67.7476 20.7734 65.0712 20.2578ZM92.1254 19.5812C92.1254 18.8899 92.3263 18.6383 92.8795 18.6383C93.5989 18.6383 93.6336 18.3868 93.6336 13.1695C93.6336 7.9523 93.5989 7.70073 92.8795 7.70073C92.3263 7.70073 92.1254 7.44917 92.1254 6.75784C92.1254 5.85681 92.226 5.81494 94.3877 5.81494H96.6501V12.2266C96.6501 18.3868 96.6795 18.6383 97.4042 18.6383C97.9574 18.6383 98.1583 18.8899 98.1583 19.5812C98.1583 20.5083 98.1082 20.5241 95.1418 20.5241C92.1755 20.5241 92.1254 20.5083 92.1254 19.5812ZM99.6666 19.5812C99.6666 18.8899 99.8676 18.6383 100.421 18.6383C101.14 18.6383 101.175 18.3868 101.175 13.1695C101.175 7.9523 101.14 7.70073 100.421 7.70073C99.8676 7.70073 99.6666 7.44917 99.6666 6.75784C99.6666 5.85681 99.7673 5.81494 101.929 5.81494H104.191V12.2266C104.191 18.3868 104.221 18.6383 104.945 18.6383C105.499 18.6383 105.7 18.8899 105.7 19.5812C105.7 20.5083 105.649 20.5241 102.683 20.5241C99.7167 20.5241 99.6666 20.5083 99.6666 19.5812ZM107.208 19.5812C107.208 18.8899 107.409 18.6383 107.962 18.6383C108.654 18.6383 108.716 18.3868 108.716 15.5856C108.716 12.8505 108.638 12.5125 107.962 12.336C106.938 12.0678 107.002 10.8609 108.056 10.5785C109.731 10.1296 111.733 10.308 111.733 10.9066C111.733 11.6009 112.026 11.6009 113.241 10.9066C114.679 10.0844 116.17 10.2194 117.217 11.2668C118.055 12.1052 118.143 12.4963 118.143 15.4155C118.143 18.3868 118.201 18.6383 118.897 18.6383C119.45 18.6383 119.651 18.8899 119.651 19.5812C119.651 20.4823 119.55 20.5241 117.388 20.5241H115.126V17.1606C115.126 13.2812 114.948 12.6038 113.93 12.6038C112.137 12.6038 111.733 13.2306 111.733 16.0114C111.733 18.3868 111.805 18.6383 112.487 18.6383C113.04 18.6383 113.241 18.8899 113.241 19.5812C113.241 20.5083 113.191 20.5241 110.224 20.5241C107.258 20.5241 107.208 20.5083 107.208 19.5812ZM121.159 19.5812C121.159 18.8899 121.36 18.6383 121.913 18.6383C122.605 18.6383 122.667 18.3868 122.667 15.5856C122.667 12.8505 122.589 12.5125 121.913 12.336C121.498 12.2274 121.159 11.8389 121.159 11.4723C121.159 10.7214 122.175 10.3537 124.27 10.3461L125.684 10.3408V14.4896C125.684 18.3868 125.729 18.6383 126.438 18.6383C126.991 18.6383 127.192 18.8899 127.192 19.5812C127.192 20.5083 127.142 20.5241 124.176 20.5241C121.209 20.5241 121.159 20.5083 121.159 19.5812ZM128.323 19.5812C128.323 18.8899 128.524 18.6383 129.077 18.6383C129.772 18.6383 129.831 18.3868 129.831 15.4325C129.831 12.4782 129.772 12.2266 129.077 12.2266C127.78 12.2266 128.133 10.8504 129.502 10.5766C131.555 10.1658 132.848 10.2933 132.848 10.9066C132.848 11.6187 133.234 11.619 134.596 10.9088C135.19 10.5992 136.069 10.3446 136.549 10.3431C138.763 10.3374 139.635 11.9385 139.635 16.0107C139.635 18.2333 139.729 18.575 140.389 18.7477C140.841 18.8658 141.143 19.2621 141.143 19.7343C141.143 20.4483 140.926 20.5241 138.881 20.5241H136.619V17.2934C136.619 13.6836 136.242 12.6038 134.981 12.6038C133.251 12.6038 132.797 13.3532 132.922 16.008C133.025 18.2121 133.119 18.4614 133.885 18.5704C134.499 18.6576 134.733 18.9438 134.733 19.6076C134.733 20.5064 134.671 20.5241 131.528 20.5241C128.361 20.5241 128.323 20.5132 128.323 19.5812ZM86.017 18.1857C86.4174 17.7852 86.6787 15.9982 86.3371 15.9982C86.2643 15.9982 85.6704 16.1845 85.0174 16.4123C83.9054 16.8001 83.4518 17.7569 84.0815 18.3868C84.4816 18.7873 85.5241 18.6787 86.017 18.1857ZM38.3862 17.3605C40.986 14.76 39.4974 9.20937 36.2004 9.20937C33.7774 9.20937 32.2812 11.7884 32.811 15.0527C33.2823 17.9598 36.4685 19.2787 38.3862 17.3605ZM148.234 14.0502C148.328 12.921 148.204 12.6219 147.556 12.416C146.568 12.1025 145.668 12.8075 145.668 13.8944C145.668 14.961 146.405 15.678 147.36 15.5411C147.936 15.4585 148.146 15.1002 148.234 14.0502ZM82.3972 9.13393C81.3248 8.0613 82.3738 6.29544 83.8119 6.75218C84.35 6.92303 84.5841 7.32018 84.5841 8.0628C84.5841 9.44245 83.3229 10.0599 82.3972 9.13393ZM86.4694 8.83221C85.9476 7.85688 86.5912 6.56926 87.6006 6.56926C88.61 6.56926 89.2537 7.85688 88.7318 8.83221C88.5097 9.24708 88.0007 9.58652 87.6006 9.58652C87.2006 9.58652 86.6915 9.24708 86.4694 8.83221ZM122.901 8.63571C122.132 7.86517 122.125 7.16517 122.883 6.40746C123.664 5.62674 124.02 5.65955 124.957 6.59679C125.661 7.30057 125.685 7.46124 125.195 8.19971C124.498 9.25198 123.674 9.40851 122.901 8.63571Z" fill="#254F2A"/>
<path fillRule="evenodd" clipRule="evenodd" d="M64.7463 42.0676C63.9072 41.4301 63.5203 40.0114 63.5203 37.5711C63.5203 35.6088 63.4392 35.3117 62.8639 35.1611C62.4711 35.0583 62.2076 34.7133 62.2076 34.3023C62.2076 33.681 62.397 33.615 64.1766 33.615H66.1457V36.4268C66.1457 39.5075 66.4758 40.5083 67.4915 40.5083C69.049 40.5083 69.4274 39.9592 69.4274 37.6985C69.4274 35.7283 69.3657 35.5448 68.6069 35.2563C68.1045 35.0652 67.7865 34.6864 67.7865 34.2797C67.7865 33.6803 67.9965 33.615 69.9196 33.615H72.0527V37.2258C72.0527 40.6177 72.0924 40.8366 72.7091 40.8366C73.6394 40.8366 73.5718 42.0177 72.627 42.2711C71.169 42.6617 69.4274 42.5064 69.4274 41.9855C69.4274 41.374 68.856 41.374 67.7865 41.9855C66.7633 42.5704 65.4549 42.6059 64.7463 42.0676ZM110.802 41.8995C107.894 40.291 107.724 35.6515 110.511 33.9518C113.232 32.2924 116.684 34.0946 116.684 37.1743C116.684 38.3596 116.271 38.5388 113.539 38.5388C111.303 38.5388 110.881 38.9242 111.949 39.9927C112.594 40.638 113.492 40.6485 114.698 40.0248C115.601 39.5577 115.64 39.5708 115.849 40.4043C116.147 41.5896 115.507 42.1286 113.547 42.3433C112.323 42.4772 111.65 42.3682 110.802 41.8995ZM137.458 42.085C137.061 41.8933 136.583 41.2935 136.394 40.7519C135.831 39.1366 136.522 38.1817 138.931 37.2455C141.252 36.3441 141.593 35.4969 139.71 35.3157C138.838 35.2316 138.587 35.3455 138.444 35.8901C138.344 36.2735 137.998 36.5693 137.649 36.5693C137.147 36.5693 137.031 36.3237 137.031 35.2691C137.031 34.0187 137.084 33.9541 138.414 33.5959C140.179 33.1206 141.837 33.3914 142.821 34.3158C143.507 34.9605 143.594 35.3357 143.594 37.642C143.594 39.9654 143.664 40.2599 144.25 40.4131C144.675 40.5244 144.907 40.8609 144.907 41.3674C144.907 42.0856 144.774 42.1496 143.293 42.1496C142.384 42.1496 141.626 41.9875 141.556 41.778C141.47 41.521 141.112 41.5716 140.396 41.9422C139.22 42.5507 138.495 42.5859 137.458 42.085ZM49.4089 41.3674C49.4089 40.8609 49.6406 40.5244 50.0653 40.4131C50.6763 40.2533 50.7216 39.9654 50.7216 36.241C50.7216 32.5166 50.6763 32.2288 50.0653 32.0689C49.6406 31.9576 49.4089 31.6212 49.4089 31.1147C49.4089 30.3557 49.487 30.3324 52.0343 30.3324C54.5816 30.3324 54.6597 30.3557 54.6597 31.1147C54.6597 31.6212 54.428 31.9576 54.0033 32.0689C53.4458 32.2146 53.347 32.5166 53.347 34.0765C53.347 35.0865 53.4576 35.9128 53.5931 35.9128C53.7287 35.9124 54.4605 35.1909 55.2195 34.3092C56.443 32.8885 56.5778 32.5711 56.4072 31.5194L56.2145 30.3324H58.7188C61.1712 30.3324 61.2231 30.3495 61.2231 31.1531C61.2231 31.7121 61.0423 31.9737 60.6557 31.9737C60.3439 31.9737 59.3315 32.8203 58.4061 33.8553L56.7239 35.7365L58.2351 37.9624C59.3112 39.5469 60.0062 40.2461 60.6488 40.3892C61.3235 40.5395 61.5513 40.787 61.5513 41.37C61.5513 42.1004 61.4321 42.1496 59.6594 42.1496H57.7675L56.4597 40.0278C55.7403 38.8605 55.0669 37.9004 54.9629 37.8941C54.8592 37.8875 54.4342 38.244 54.0191 38.6862C53.1612 39.5997 53.3119 40.5083 54.3213 40.5083C54.8136 40.5083 54.9878 40.723 54.9878 41.329C54.9878 42.1401 54.955 42.1496 52.1984 42.1496C49.4782 42.1496 49.4089 42.1303 49.4089 41.3674ZM74.3499 41.329C74.3499 40.7273 74.5248 40.5083 75.0063 40.5083C75.6085 40.5083 75.6626 40.2894 75.6626 37.8514C75.6626 35.4709 75.5944 35.1768 75.0063 35.0232C74.115 34.7898 74.1711 33.7394 75.0883 33.4935C76.5464 33.1029 78.288 33.2582 78.288 33.7791C78.288 34.3834 78.5436 34.3834 79.6007 33.7791C80.7562 33.1183 82.1164 33.1771 82.8591 33.9199C83.4839 34.5449 83.5072 34.5449 84.7333 33.9199C86.2993 33.1213 87.1978 33.1196 88.1787 33.914C88.8712 34.4747 88.9657 34.8584 89.0681 37.5248C89.1711 40.1972 89.2479 40.5083 89.8065 40.5083C90.2531 40.5083 90.4303 40.7414 90.4303 41.329C90.4303 42.1132 90.3427 42.1496 88.4613 42.1496H86.4923V39.0712C86.4923 35.5628 86.146 34.9057 84.5856 35.4529C83.751 35.7454 83.6976 35.8918 83.6063 38.1354C83.5167 40.338 83.5581 40.5083 84.1806 40.5083C84.6775 40.5083 84.8514 40.7214 84.8514 41.329C84.8514 42.1132 84.7638 42.1496 82.8824 42.1496H80.9134V38.8569C80.9134 35.2569 80.6695 34.8131 79.0874 35.5343C78.3507 35.8701 78.288 36.0795 78.288 38.2037C78.288 40.2894 78.3503 40.5083 78.9443 40.5083C79.4258 40.5083 79.6007 40.7273 79.6007 41.329C79.6007 42.1358 79.557 42.1496 76.9753 42.1496C74.3936 42.1496 74.3499 42.1358 74.3499 41.329ZM91.4148 41.329C91.4148 40.7273 91.5897 40.5083 92.0712 40.5083C92.6734 40.5083 92.7275 40.2894 92.7275 37.8514C92.7275 35.4709 92.6592 35.1768 92.0712 35.0232C91.0148 34.7468 91.2603 33.7279 92.4404 33.4919C94.2798 33.1239 95.3529 33.2427 95.3529 33.8142C95.3529 34.1907 95.517 34.2718 95.9272 34.0972C98.0071 33.2122 98.9434 33.1489 99.8652 33.8306C100.765 34.4963 100.798 34.4973 101.917 33.8969C103.53 33.0317 104.686 33.1137 105.502 34.1517C106.067 34.8702 106.183 35.4814 106.183 37.7625C106.183 40.2894 106.235 40.5083 106.839 40.5083C107.32 40.5083 107.495 40.7273 107.495 41.329C107.495 42.1132 107.408 42.1496 105.526 42.1496H103.557V38.8569C103.557 35.2907 103.395 34.9789 101.752 35.3912C100.97 35.5875 100.932 35.7102 100.932 38.0143C100.932 40.1558 101.007 40.4512 101.588 40.6035C101.981 40.7063 102.244 41.0513 102.244 41.4623C102.244 42.0836 102.055 42.1496 100.275 42.1496H98.3064V39.0712C98.3064 35.5628 97.9602 34.9057 96.3997 35.4529C95.5652 35.7454 95.5117 35.8918 95.4205 38.1354C95.3309 40.338 95.3722 40.5083 95.9948 40.5083C96.4916 40.5083 96.6656 40.7214 96.6656 41.329C96.6656 42.1358 96.6219 42.1496 94.0402 42.1496C91.4585 42.1496 91.4148 42.1358 91.4148 41.329ZM117.997 41.329C117.997 40.7273 118.172 40.5083 118.653 40.5083C119.279 40.5083 119.309 40.2894 119.309 35.7486C119.309 31.2079 119.279 30.9889 118.653 30.9889C118.172 30.9889 117.997 30.77 117.997 30.1683C117.997 29.3841 118.084 29.3477 119.966 29.3477H121.935V34.928C121.935 40.2894 121.96 40.5083 122.591 40.5083C123.073 40.5083 123.247 40.7273 123.247 41.329C123.247 42.1358 123.204 42.1496 120.622 42.1496C118.04 42.1496 117.997 42.1358 117.997 41.329ZM124.232 41.329C124.232 40.7273 124.407 40.5083 124.888 40.5083C125.493 40.5083 125.545 40.2894 125.545 37.7182C125.545 35.1469 125.493 34.928 124.888 34.928C123.759 34.928 124.067 33.7302 125.257 33.4919C127.045 33.1344 128.17 33.2454 128.17 33.7791C128.17 34.3989 128.506 34.3992 129.691 33.7811C130.208 33.5116 130.973 33.29 131.391 33.2887C133.318 33.2838 134.077 34.6772 134.077 38.2214C134.077 40.1558 134.159 40.4532 134.733 40.6035C135.126 40.7063 135.39 41.0513 135.39 41.4623C135.39 42.0836 135.2 42.1496 133.421 42.1496H131.452V39.3378C131.452 36.196 131.124 35.2563 130.026 35.2563C128.52 35.2563 128.126 35.9085 128.234 38.2191C128.324 40.1374 128.406 40.3544 129.072 40.4493C129.607 40.5251 129.811 40.7742 129.811 41.352C129.811 42.1342 129.757 42.1496 127.021 42.1496C124.265 42.1496 124.232 42.1401 124.232 41.329ZM146.876 41.8732C146.207 41.673 146.055 41.4186 146.055 40.4982C146.055 39.1848 146.998 38.701 147.301 39.8587C147.448 40.4204 147.691 40.5336 148.571 40.4489C150.304 40.2822 150.15 39.4107 148.199 38.3487C146.392 37.3646 145.908 36.4416 146.425 34.9641C146.812 33.8592 148.866 33.0947 150.583 33.4167C151.741 33.634 151.798 33.7056 151.798 34.9428C151.798 35.9118 151.666 36.241 151.275 36.241C150.988 36.241 150.673 35.9377 150.576 35.5674C150.362 34.7461 149.069 34.8095 148.909 35.6492C148.838 36.0224 149.237 36.4275 150.115 36.8759C151.525 37.5954 152.455 38.6691 152.455 39.5784C152.455 39.8893 152.114 40.5399 151.697 41.0247C151.101 41.718 150.594 41.9284 149.318 42.0121C148.426 42.0705 147.327 42.0081 146.876 41.8732ZM140.449 40.3091C140.754 40.1922 140.969 39.7248 140.969 39.1773C140.969 38.2834 140.928 38.2591 139.983 38.588C138.766 39.0128 138.498 39.4107 139.011 40.0304C139.45 40.5586 139.682 40.6035 140.449 40.3091ZM114.059 36.632C114.059 36.4859 113.866 36.1028 113.63 35.7801C113.055 34.994 111.744 35.2165 111.397 36.159C111.142 36.8552 111.21 36.8975 112.592 36.8975C113.399 36.8975 114.059 36.778 114.059 36.632ZM137.769 32.4129C137.068 32.1299 137.269 30.4053 138.031 30.1634C139.282 29.7659 140.195 31.3027 139.262 32.2363C138.852 32.6466 138.462 32.6929 137.769 32.4129ZM141.362 32.2363C140.429 31.3027 141.342 29.7659 142.594 30.1634C143.062 30.3121 143.266 30.6577 143.266 31.3041C143.266 32.5048 142.168 33.0422 141.362 32.2363Z" fill="#254F2A"/>
</g>
<defs>
<clipPath id="clip0_21_235">
<rect width="169" height="54" fill="white"/>
</clipPath>
</defs>
</svg>
